%TF.GenerationSoftware,KiCad,Pcbnew,9.0.6*%
%TF.CreationDate,2025-12-01T19:55:50-08:00*%
%TF.ProjectId,3.4,332e342e-6b69-4636-9164-5f7063625858,rev?*%
%TF.SameCoordinates,Original*%
%TF.FileFunction,Copper,L1,Top*%
%TF.FilePolarity,Positive*%
%FSLAX46Y46*%
G04 Gerber Fmt 4.6, Leading zero omitted, Abs format (unit mm)*
G04 Created by KiCad (PCBNEW 9.0.6) date 2025-12-01 19:55:50*
%MOMM*%
%LPD*%
G01*
G04 APERTURE LIST*
G04 Aperture macros list*
%AMRoundRect*
0 Rectangle with rounded corners*
0 $1 Rounding radius*
0 $2 $3 $4 $5 $6 $7 $8 $9 X,Y pos of 4 corners*
0 Add a 4 corners polygon primitive as box body*
4,1,4,$2,$3,$4,$5,$6,$7,$8,$9,$2,$3,0*
0 Add four circle primitives for the rounded corners*
1,1,$1+$1,$2,$3*
1,1,$1+$1,$4,$5*
1,1,$1+$1,$6,$7*
1,1,$1+$1,$8,$9*
0 Add four rect primitives between the rounded corners*
20,1,$1+$1,$2,$3,$4,$5,0*
20,1,$1+$1,$4,$5,$6,$7,0*
20,1,$1+$1,$6,$7,$8,$9,0*
20,1,$1+$1,$8,$9,$2,$3,0*%
G04 Aperture macros list end*
%TA.AperFunction,NonConductor*%
%ADD10C,0.200000*%
%TD*%
%ADD11C,0.300000*%
%TA.AperFunction,NonConductor*%
%ADD12C,0.300000*%
%TD*%
%TA.AperFunction,SMDPad,CuDef*%
%ADD13RoundRect,0.250000X-0.525000X-0.400000X0.525000X-0.400000X0.525000X0.400000X-0.525000X0.400000X0*%
%TD*%
%TA.AperFunction,ComponentPad*%
%ADD14R,3.000000X3.000000*%
%TD*%
%TA.AperFunction,ComponentPad*%
%ADD15C,3.000000*%
%TD*%
%TA.AperFunction,ComponentPad*%
%ADD16C,3.800000*%
%TD*%
%TA.AperFunction,SMDPad,CuDef*%
%ADD17RoundRect,0.100000X-0.130000X-0.100000X0.130000X-0.100000X0.130000X0.100000X-0.130000X0.100000X0*%
%TD*%
%TA.AperFunction,ViaPad*%
%ADD18C,0.600000*%
%TD*%
%TA.AperFunction,Conductor*%
%ADD19C,0.200000*%
%TD*%
G04 APERTURE END LIST*
D10*
X101500000Y-62500000D02*
G75*
G02*
X99500000Y-62500000I-1000000J0D01*
G01*
X99500000Y-62500000D02*
G75*
G02*
X101500000Y-62500000I1000000J0D01*
G01*
X24000000Y-62500000D02*
G75*
G02*
X22000000Y-62500000I-1000000J0D01*
G01*
X22000000Y-62500000D02*
G75*
G02*
X24000000Y-62500000I1000000J0D01*
G01*
X24000000Y-111500000D02*
G75*
G02*
X22000000Y-111500000I-1000000J0D01*
G01*
X22000000Y-111500000D02*
G75*
G02*
X24000000Y-111500000I1000000J0D01*
G01*
X101000000Y-111500000D02*
G75*
G02*
X99000000Y-111500000I-1000000J0D01*
G01*
X99000000Y-111500000D02*
G75*
G02*
X101000000Y-111500000I1000000J0D01*
G01*
D11*
D12*
X43340225Y-103885912D02*
X44197368Y-103885912D01*
X43768796Y-105385912D02*
X43768796Y-103885912D01*
X45554510Y-105385912D02*
X45054510Y-104671626D01*
X44697367Y-105385912D02*
X44697367Y-103885912D01*
X44697367Y-103885912D02*
X45268796Y-103885912D01*
X45268796Y-103885912D02*
X45411653Y-103957341D01*
X45411653Y-103957341D02*
X45483082Y-104028769D01*
X45483082Y-104028769D02*
X45554510Y-104171626D01*
X45554510Y-104171626D02*
X45554510Y-104385912D01*
X45554510Y-104385912D02*
X45483082Y-104528769D01*
X45483082Y-104528769D02*
X45411653Y-104600198D01*
X45411653Y-104600198D02*
X45268796Y-104671626D01*
X45268796Y-104671626D02*
X44697367Y-104671626D01*
X46197367Y-104600198D02*
X46697367Y-104600198D01*
X46911653Y-105385912D02*
X46197367Y-105385912D01*
X46197367Y-105385912D02*
X46197367Y-103885912D01*
X46197367Y-103885912D02*
X46911653Y-103885912D01*
X47340225Y-103885912D02*
X47840225Y-105385912D01*
X47840225Y-105385912D02*
X48340225Y-103885912D01*
X49125939Y-103885912D02*
X49411653Y-103885912D01*
X49411653Y-103885912D02*
X49554510Y-103957341D01*
X49554510Y-103957341D02*
X49697367Y-104100198D01*
X49697367Y-104100198D02*
X49768796Y-104385912D01*
X49768796Y-104385912D02*
X49768796Y-104885912D01*
X49768796Y-104885912D02*
X49697367Y-105171626D01*
X49697367Y-105171626D02*
X49554510Y-105314484D01*
X49554510Y-105314484D02*
X49411653Y-105385912D01*
X49411653Y-105385912D02*
X49125939Y-105385912D01*
X49125939Y-105385912D02*
X48983082Y-105314484D01*
X48983082Y-105314484D02*
X48840224Y-105171626D01*
X48840224Y-105171626D02*
X48768796Y-104885912D01*
X48768796Y-104885912D02*
X48768796Y-104385912D01*
X48768796Y-104385912D02*
X48840224Y-104100198D01*
X48840224Y-104100198D02*
X48983082Y-103957341D01*
X48983082Y-103957341D02*
X49125939Y-103885912D01*
X51268796Y-105385912D02*
X50768796Y-104671626D01*
X50411653Y-105385912D02*
X50411653Y-103885912D01*
X50411653Y-103885912D02*
X50983082Y-103885912D01*
X50983082Y-103885912D02*
X51125939Y-103957341D01*
X51125939Y-103957341D02*
X51197368Y-104028769D01*
X51197368Y-104028769D02*
X51268796Y-104171626D01*
X51268796Y-104171626D02*
X51268796Y-104385912D01*
X51268796Y-104385912D02*
X51197368Y-104528769D01*
X51197368Y-104528769D02*
X51125939Y-104600198D01*
X51125939Y-104600198D02*
X50983082Y-104671626D01*
X50983082Y-104671626D02*
X50411653Y-104671626D01*
X53054510Y-105385912D02*
X53054510Y-103885912D01*
X53054510Y-104600198D02*
X53911653Y-104600198D01*
X53911653Y-105385912D02*
X53911653Y-103885912D01*
X54554511Y-104957341D02*
X55268797Y-104957341D01*
X54411654Y-105385912D02*
X54911654Y-103885912D01*
X54911654Y-103885912D02*
X55411654Y-105385912D01*
X56768796Y-105385912D02*
X56268796Y-104671626D01*
X55911653Y-105385912D02*
X55911653Y-103885912D01*
X55911653Y-103885912D02*
X56483082Y-103885912D01*
X56483082Y-103885912D02*
X56625939Y-103957341D01*
X56625939Y-103957341D02*
X56697368Y-104028769D01*
X56697368Y-104028769D02*
X56768796Y-104171626D01*
X56768796Y-104171626D02*
X56768796Y-104385912D01*
X56768796Y-104385912D02*
X56697368Y-104528769D01*
X56697368Y-104528769D02*
X56625939Y-104600198D01*
X56625939Y-104600198D02*
X56483082Y-104671626D01*
X56483082Y-104671626D02*
X55911653Y-104671626D01*
X57411653Y-105385912D02*
X57411653Y-103885912D01*
X57411653Y-103885912D02*
X58268796Y-105385912D01*
X58268796Y-105385912D02*
X58268796Y-103885912D01*
X58983082Y-104600198D02*
X59483082Y-104600198D01*
X59697368Y-105385912D02*
X58983082Y-105385912D01*
X58983082Y-105385912D02*
X58983082Y-103885912D01*
X58983082Y-103885912D02*
X59697368Y-103885912D01*
X60340225Y-105385912D02*
X60340225Y-103885912D01*
X60340225Y-103885912D02*
X60697368Y-103885912D01*
X60697368Y-103885912D02*
X60911654Y-103957341D01*
X60911654Y-103957341D02*
X61054511Y-104100198D01*
X61054511Y-104100198D02*
X61125940Y-104243055D01*
X61125940Y-104243055D02*
X61197368Y-104528769D01*
X61197368Y-104528769D02*
X61197368Y-104743055D01*
X61197368Y-104743055D02*
X61125940Y-105028769D01*
X61125940Y-105028769D02*
X61054511Y-105171626D01*
X61054511Y-105171626D02*
X60911654Y-105314484D01*
X60911654Y-105314484D02*
X60697368Y-105385912D01*
X60697368Y-105385912D02*
X60340225Y-105385912D01*
X43340225Y-106300828D02*
X44197368Y-106300828D01*
X43768796Y-107800828D02*
X43768796Y-106300828D01*
X44697367Y-107800828D02*
X44697367Y-106300828D01*
X44697367Y-107015114D02*
X45554510Y-107015114D01*
X45554510Y-107800828D02*
X45554510Y-106300828D01*
X46197368Y-107372257D02*
X46911654Y-107372257D01*
X46054511Y-107800828D02*
X46554511Y-106300828D01*
X46554511Y-106300828D02*
X47054511Y-107800828D01*
X48411653Y-107800828D02*
X47911653Y-107086542D01*
X47554510Y-107800828D02*
X47554510Y-106300828D01*
X47554510Y-106300828D02*
X48125939Y-106300828D01*
X48125939Y-106300828D02*
X48268796Y-106372257D01*
X48268796Y-106372257D02*
X48340225Y-106443685D01*
X48340225Y-106443685D02*
X48411653Y-106586542D01*
X48411653Y-106586542D02*
X48411653Y-106800828D01*
X48411653Y-106800828D02*
X48340225Y-106943685D01*
X48340225Y-106943685D02*
X48268796Y-107015114D01*
X48268796Y-107015114D02*
X48125939Y-107086542D01*
X48125939Y-107086542D02*
X47554510Y-107086542D01*
X49054510Y-107800828D02*
X49054510Y-106300828D01*
X49054510Y-106300828D02*
X49911653Y-107800828D01*
X49911653Y-107800828D02*
X49911653Y-106300828D01*
X50625939Y-107015114D02*
X51125939Y-107015114D01*
X51340225Y-107800828D02*
X50625939Y-107800828D01*
X50625939Y-107800828D02*
X50625939Y-106300828D01*
X50625939Y-106300828D02*
X51340225Y-106300828D01*
X51983082Y-107800828D02*
X51983082Y-106300828D01*
X51983082Y-106300828D02*
X52340225Y-106300828D01*
X52340225Y-106300828D02*
X52554511Y-106372257D01*
X52554511Y-106372257D02*
X52697368Y-106515114D01*
X52697368Y-106515114D02*
X52768797Y-106657971D01*
X52768797Y-106657971D02*
X52840225Y-106943685D01*
X52840225Y-106943685D02*
X52840225Y-107157971D01*
X52840225Y-107157971D02*
X52768797Y-107443685D01*
X52768797Y-107443685D02*
X52697368Y-107586542D01*
X52697368Y-107586542D02*
X52554511Y-107729400D01*
X52554511Y-107729400D02*
X52340225Y-107800828D01*
X52340225Y-107800828D02*
X51983082Y-107800828D01*
X53554511Y-107800828D02*
X53840225Y-107800828D01*
X53840225Y-107800828D02*
X53983082Y-107729400D01*
X53983082Y-107729400D02*
X54054511Y-107657971D01*
X54054511Y-107657971D02*
X54197368Y-107443685D01*
X54197368Y-107443685D02*
X54268797Y-107157971D01*
X54268797Y-107157971D02*
X54268797Y-106586542D01*
X54268797Y-106586542D02*
X54197368Y-106443685D01*
X54197368Y-106443685D02*
X54125940Y-106372257D01*
X54125940Y-106372257D02*
X53983082Y-106300828D01*
X53983082Y-106300828D02*
X53697368Y-106300828D01*
X53697368Y-106300828D02*
X53554511Y-106372257D01*
X53554511Y-106372257D02*
X53483082Y-106443685D01*
X53483082Y-106443685D02*
X53411654Y-106586542D01*
X53411654Y-106586542D02*
X53411654Y-106943685D01*
X53411654Y-106943685D02*
X53483082Y-107086542D01*
X53483082Y-107086542D02*
X53554511Y-107157971D01*
X53554511Y-107157971D02*
X53697368Y-107229400D01*
X53697368Y-107229400D02*
X53983082Y-107229400D01*
X53983082Y-107229400D02*
X54125940Y-107157971D01*
X54125940Y-107157971D02*
X54197368Y-107086542D01*
X54197368Y-107086542D02*
X54268797Y-106943685D01*
X55625939Y-106300828D02*
X54911653Y-106300828D01*
X54911653Y-106300828D02*
X54840225Y-107015114D01*
X54840225Y-107015114D02*
X54911653Y-106943685D01*
X54911653Y-106943685D02*
X55054511Y-106872257D01*
X55054511Y-106872257D02*
X55411653Y-106872257D01*
X55411653Y-106872257D02*
X55554511Y-106943685D01*
X55554511Y-106943685D02*
X55625939Y-107015114D01*
X55625939Y-107015114D02*
X55697368Y-107157971D01*
X55697368Y-107157971D02*
X55697368Y-107515114D01*
X55697368Y-107515114D02*
X55625939Y-107657971D01*
X55625939Y-107657971D02*
X55554511Y-107729400D01*
X55554511Y-107729400D02*
X55411653Y-107800828D01*
X55411653Y-107800828D02*
X55054511Y-107800828D01*
X55054511Y-107800828D02*
X54911653Y-107729400D01*
X54911653Y-107729400D02*
X54840225Y-107657971D01*
X56411653Y-107800828D02*
X56697367Y-107800828D01*
X56697367Y-107800828D02*
X56840224Y-107729400D01*
X56840224Y-107729400D02*
X56911653Y-107657971D01*
X56911653Y-107657971D02*
X57054510Y-107443685D01*
X57054510Y-107443685D02*
X57125939Y-107157971D01*
X57125939Y-107157971D02*
X57125939Y-106586542D01*
X57125939Y-106586542D02*
X57054510Y-106443685D01*
X57054510Y-106443685D02*
X56983082Y-106372257D01*
X56983082Y-106372257D02*
X56840224Y-106300828D01*
X56840224Y-106300828D02*
X56554510Y-106300828D01*
X56554510Y-106300828D02*
X56411653Y-106372257D01*
X56411653Y-106372257D02*
X56340224Y-106443685D01*
X56340224Y-106443685D02*
X56268796Y-106586542D01*
X56268796Y-106586542D02*
X56268796Y-106943685D01*
X56268796Y-106943685D02*
X56340224Y-107086542D01*
X56340224Y-107086542D02*
X56411653Y-107157971D01*
X56411653Y-107157971D02*
X56554510Y-107229400D01*
X56554510Y-107229400D02*
X56840224Y-107229400D01*
X56840224Y-107229400D02*
X56983082Y-107157971D01*
X56983082Y-107157971D02*
X57054510Y-107086542D01*
X57054510Y-107086542D02*
X57125939Y-106943685D01*
X58697367Y-107086542D02*
X58625938Y-107015114D01*
X58625938Y-107015114D02*
X58483081Y-106943685D01*
X58483081Y-106943685D02*
X58340224Y-106943685D01*
X58340224Y-106943685D02*
X58197367Y-107015114D01*
X58197367Y-107015114D02*
X58125938Y-107086542D01*
X58125938Y-107086542D02*
X58054510Y-107229400D01*
X58054510Y-107229400D02*
X58054510Y-107372257D01*
X58054510Y-107372257D02*
X58125938Y-107515114D01*
X58125938Y-107515114D02*
X58197367Y-107586542D01*
X58197367Y-107586542D02*
X58340224Y-107657971D01*
X58340224Y-107657971D02*
X58483081Y-107657971D01*
X58483081Y-107657971D02*
X58625938Y-107586542D01*
X58625938Y-107586542D02*
X58697367Y-107515114D01*
X58697367Y-106943685D02*
X58697367Y-107515114D01*
X58697367Y-107515114D02*
X58768795Y-107586542D01*
X58768795Y-107586542D02*
X58840224Y-107586542D01*
X58840224Y-107586542D02*
X58983081Y-107515114D01*
X58983081Y-107515114D02*
X59054510Y-107372257D01*
X59054510Y-107372257D02*
X59054510Y-107015114D01*
X59054510Y-107015114D02*
X58911653Y-106800828D01*
X58911653Y-106800828D02*
X58697367Y-106657971D01*
X58697367Y-106657971D02*
X58411653Y-106586542D01*
X58411653Y-106586542D02*
X58125938Y-106657971D01*
X58125938Y-106657971D02*
X57911653Y-106800828D01*
X57911653Y-106800828D02*
X57768795Y-107015114D01*
X57768795Y-107015114D02*
X57697367Y-107300828D01*
X57697367Y-107300828D02*
X57768795Y-107586542D01*
X57768795Y-107586542D02*
X57911653Y-107800828D01*
X57911653Y-107800828D02*
X58125938Y-107943685D01*
X58125938Y-107943685D02*
X58411653Y-108015114D01*
X58411653Y-108015114D02*
X58697367Y-107943685D01*
X58697367Y-107943685D02*
X58911653Y-107800828D01*
X60483081Y-106372257D02*
X60340224Y-106300828D01*
X60340224Y-106300828D02*
X60125938Y-106300828D01*
X60125938Y-106300828D02*
X59911652Y-106372257D01*
X59911652Y-106372257D02*
X59768795Y-106515114D01*
X59768795Y-106515114D02*
X59697366Y-106657971D01*
X59697366Y-106657971D02*
X59625938Y-106943685D01*
X59625938Y-106943685D02*
X59625938Y-107157971D01*
X59625938Y-107157971D02*
X59697366Y-107443685D01*
X59697366Y-107443685D02*
X59768795Y-107586542D01*
X59768795Y-107586542D02*
X59911652Y-107729400D01*
X59911652Y-107729400D02*
X60125938Y-107800828D01*
X60125938Y-107800828D02*
X60268795Y-107800828D01*
X60268795Y-107800828D02*
X60483081Y-107729400D01*
X60483081Y-107729400D02*
X60554509Y-107657971D01*
X60554509Y-107657971D02*
X60554509Y-107157971D01*
X60554509Y-107157971D02*
X60268795Y-107157971D01*
X61197366Y-107800828D02*
X61197366Y-106300828D01*
X61197366Y-106300828D02*
X61697366Y-107372257D01*
X61697366Y-107372257D02*
X62197366Y-106300828D01*
X62197366Y-106300828D02*
X62197366Y-107800828D01*
X62840224Y-107372257D02*
X63554510Y-107372257D01*
X62697367Y-107800828D02*
X63197367Y-106300828D01*
X63197367Y-106300828D02*
X63697367Y-107800828D01*
X64197366Y-107800828D02*
X64197366Y-106300828D01*
X65625938Y-107800828D02*
X64911652Y-107800828D01*
X64911652Y-107800828D02*
X64911652Y-106300828D01*
X66125938Y-107657971D02*
X66197367Y-107729400D01*
X66197367Y-107729400D02*
X66125938Y-107800828D01*
X66125938Y-107800828D02*
X66054510Y-107729400D01*
X66054510Y-107729400D02*
X66125938Y-107657971D01*
X66125938Y-107657971D02*
X66125938Y-107800828D01*
X67697367Y-107657971D02*
X67625939Y-107729400D01*
X67625939Y-107729400D02*
X67411653Y-107800828D01*
X67411653Y-107800828D02*
X67268796Y-107800828D01*
X67268796Y-107800828D02*
X67054510Y-107729400D01*
X67054510Y-107729400D02*
X66911653Y-107586542D01*
X66911653Y-107586542D02*
X66840224Y-107443685D01*
X66840224Y-107443685D02*
X66768796Y-107157971D01*
X66768796Y-107157971D02*
X66768796Y-106943685D01*
X66768796Y-106943685D02*
X66840224Y-106657971D01*
X66840224Y-106657971D02*
X66911653Y-106515114D01*
X66911653Y-106515114D02*
X67054510Y-106372257D01*
X67054510Y-106372257D02*
X67268796Y-106300828D01*
X67268796Y-106300828D02*
X67411653Y-106300828D01*
X67411653Y-106300828D02*
X67625939Y-106372257D01*
X67625939Y-106372257D02*
X67697367Y-106443685D01*
X68625939Y-106300828D02*
X68911653Y-106300828D01*
X68911653Y-106300828D02*
X69054510Y-106372257D01*
X69054510Y-106372257D02*
X69197367Y-106515114D01*
X69197367Y-106515114D02*
X69268796Y-106800828D01*
X69268796Y-106800828D02*
X69268796Y-107300828D01*
X69268796Y-107300828D02*
X69197367Y-107586542D01*
X69197367Y-107586542D02*
X69054510Y-107729400D01*
X69054510Y-107729400D02*
X68911653Y-107800828D01*
X68911653Y-107800828D02*
X68625939Y-107800828D01*
X68625939Y-107800828D02*
X68483082Y-107729400D01*
X68483082Y-107729400D02*
X68340224Y-107586542D01*
X68340224Y-107586542D02*
X68268796Y-107300828D01*
X68268796Y-107300828D02*
X68268796Y-106800828D01*
X68268796Y-106800828D02*
X68340224Y-106515114D01*
X68340224Y-106515114D02*
X68483082Y-106372257D01*
X68483082Y-106372257D02*
X68625939Y-106300828D01*
X69911653Y-107800828D02*
X69911653Y-106300828D01*
X69911653Y-106300828D02*
X70411653Y-107372257D01*
X70411653Y-107372257D02*
X70911653Y-106300828D01*
X70911653Y-106300828D02*
X70911653Y-107800828D01*
D13*
%TO.P,SW1,1,A*%
%TO.N,Net-(D1-A)*%
X56520000Y-94250000D03*
X64480000Y-94250000D03*
%TO.P,SW1,2,B*%
%TO.N,Net-(BT1-+)*%
X56520000Y-98750000D03*
X64480000Y-98750000D03*
%TD*%
D14*
%TO.P,BT1,1,+*%
%TO.N,Net-(BT1-+)*%
X73010000Y-97000000D03*
D15*
%TO.P,BT1,2,-*%
%TO.N,GND*%
X93500000Y-97000000D03*
%TD*%
D16*
%TO.P,REF\u002A\u002A,1*%
%TO.N,N/C*%
X100000000Y-111500000D03*
%TD*%
%TO.P,REF\u002A\u002A,1*%
%TO.N,N/C*%
X100500000Y-62500000D03*
%TD*%
%TO.P,REF\u002A\u002A,1*%
%TO.N,N/C*%
X23000000Y-62500000D03*
%TD*%
%TO.P,REF\u002A\u002A,1*%
%TO.N,N/C*%
X23000000Y-111500000D03*
%TD*%
D17*
%TO.P,R2,1*%
%TO.N,Net-(D1-K)*%
X87860000Y-71500000D03*
%TO.P,R2,2*%
%TO.N,GND*%
X88500000Y-71500000D03*
%TD*%
%TO.P,D1,1,K*%
%TO.N,Net-(D1-K)*%
X62500000Y-72000000D03*
%TO.P,D1,2,A*%
%TO.N,Net-(D1-A)*%
X63140000Y-72000000D03*
%TD*%
D18*
%TO.N,*%
X142500000Y-66000000D03*
%TD*%
D19*
%TO.N,Net-(D1-K)*%
X87860000Y-71500000D02*
X87860000Y-70640000D01*
X88000000Y-70500000D02*
X62500000Y-70500000D01*
X87860000Y-70640000D02*
X88000000Y-70500000D01*
X62500000Y-70500000D02*
X62500000Y-72000000D01*
%TO.N,Net-(D1-A)*%
X63140000Y-95635000D02*
X63125000Y-95650000D01*
X63140000Y-92910000D02*
X64480000Y-94250000D01*
X63140000Y-72000000D02*
X63140000Y-92910000D01*
X56520000Y-94250000D02*
X64480000Y-94250000D01*
%TO.N,GND*%
X93500000Y-97000000D02*
X93500000Y-71500000D01*
X93500000Y-71500000D02*
X88500000Y-71500000D01*
%TO.N,Net-(BT1-+)*%
X64480000Y-98750000D02*
X56520000Y-98750000D01*
X64480000Y-98750000D02*
X71260000Y-98750000D01*
X71260000Y-98750000D02*
X73010000Y-97000000D01*
%TD*%
M02*
